HIERARCHY
ROOT root
{
	OFFSET	0	13.1	24.9
	CHANNELS 6  Xposition Yposition Zposition Xrotation Yrotation Zrotation
	JOINT spine_1
	{
		OFFSET	0	9.99999	0
		CHANNELS 3  Xrotation Yrotation Zrotation
		JOINT spine_2
		{
			OFFSET	0	112	-10
			CHANNELS 3  Xrotation Yrotation Zrotation
			JOINT spine_3
			{
				OFFSET	0	206.5	19.3
				CHANNELS 3  Xrotation Yrotation Zrotation
				JOINT spine_4
				{
					OFFSET	0	110.4	14.6
					CHANNELS 3  Xrotation Yrotation Zrotation
					JOINT neck_1
					{
						OFFSET	0	71.8	-50.3
						CHANNELS 3  Xrotation Yrotation Zrotation
						JOINT neck_2
						{
							OFFSET	0	86.2	-25.8
							CHANNELS 3  Xrotation Yrotation Zrotation
							JOINT head_ee
							{
								OFFSET	0	179.8	-8.7
								CHANNELS 3  Xrotation Yrotation Zrotation
								End Site
								{
									OFFSET	1	0	0
								}
							}
						}
					}
					JOINT left_clavicle
					{
						OFFSET	-43.2	22.4	-70.8
						CHANNELS 3  Xrotation Yrotation Zrotation
						JOINT left_shoulder
						{
							OFFSET	-93.9	-5.79999	48.7
							CHANNELS 3  Xrotation Yrotation Zrotation
							JOINT left_elbow
							{
								OFFSET	-291.4	-30.8	15.2
								CHANNELS 3  Xrotation Yrotation Zrotation
								JOINT left_lowarm_twist
								{
									OFFSET	-110.7	-3.89999	13.6
									CHANNELS 3  Xrotation Yrotation Zrotation
									JOINT left_hand
									{
										OFFSET	-110.7	-3.89999	13.6
										CHANNELS 3  Xrotation Yrotation Zrotation
										JOINT left_ee
										{
											OFFSET	-80.8	-5.10001	12.1
											CHANNELS 3  Xrotation Yrotation Zrotation
											End Site
											{
												OFFSET	1	0	0
											}
										}
									}
								}
							}
						}
					}
					JOINT right_clavicle
					{
						OFFSET	43.2	22.4	-70.8
						CHANNELS 3  Xrotation Yrotation Zrotation
						JOINT right_shoulder
						{
							OFFSET	93.9	-5.79999	48.7
							CHANNELS 3  Xrotation Yrotation Zrotation
							JOINT right_elbow
							{
								OFFSET	291.4	-30.8	15.2
								CHANNELS 3  Xrotation Yrotation Zrotation
								JOINT right_lowarm_twist
								{
									OFFSET	110.7	-3.89999	13.6
									CHANNELS 3  Xrotation Yrotation Zrotation
									JOINT right_hand
									{
										OFFSET	110.7	-3.89999	13.6
										CHANNELS 3  Xrotation Yrotation Zrotation
										JOINT right_ee
										{
											OFFSET	80.8	-5.10001	12.1
											CHANNELS 3  Xrotation Yrotation Zrotation
											End Site
											{
												OFFSET	1	0	0
											}
										}
									}
								}
							}
						}
					}
				}
			}
		}
	}
	JOINT left_hip
	{
		OFFSET	-82.8	-127.5	0.300001
		CHANNELS 3  Xrotation Yrotation Zrotation
		JOINT left_knee
		{
			OFFSET	-28.2	-396.7	2.2
			CHANNELS 3  Xrotation Yrotation Zrotation
			JOINT left_ankle
			{
				OFFSET	-11.7	-411.3	35.4
				CHANNELS 3  Xrotation Yrotation Zrotation
				JOINT left_toes
				{
					OFFSET	0	-60	-88.6
					CHANNELS 3  Xrotation Yrotation Zrotation
					JOINT left_foot_ee
					{
						OFFSET	-22.5	-16.5	-42.2
						CHANNELS 3  Xrotation Yrotation Zrotation
						End Site
						{
							OFFSET	1	0	0
						}
					}
				}
			}
		}
	}
	JOINT right_hip
	{
		OFFSET	82.8	-127.5	0.300001
		CHANNELS 3  Xrotation Yrotation Zrotation
		JOINT right_knee
		{
			OFFSET	28.2	-396.7	2.2
			CHANNELS 3  Xrotation Yrotation Zrotation
			JOINT right_ankle
			{
				OFFSET	11.7	-411.3	35.4
				CHANNELS 3  Xrotation Yrotation Zrotation
				JOINT right_toes
				{
					OFFSET	0	-60	-88.6
					CHANNELS 3  Xrotation Yrotation Zrotation
					JOINT right_foot_ee
					{
						OFFSET	22.5	-16.5	-42.2
						CHANNELS 3  Xrotation Yrotation Zrotation
						End Site
						{
							OFFSET	1	0	0
						}
					}
				}
			}
		}
	}
}
MOTION
Frames: 8
Frame Time: 0.02
1442.98 665.187 -1331.29 -15.8703 66.5271 18.7506 3.32419 -0.00457406 -0.621129 3.3244 0.0349585 -0.620161 3.32393 0.129521 -0.607492 3.32342 0.0319555 -0.620323 1.76966 2.49776 3.18011 1.79514 1.72237 3.70426 -0.0 0.0 -0.0 3.98735 21.43 8.20975 -24.9026 -3.61162 70.2056 0.442897 -12.3747 0.0480155 18.3932 0.277322 -2.32313 0.795588 -0.693559 5.03634 -0.0 0.0 -0.0 9.70489 -5.09056 -18.745 4.5872 19.9255 -61.0863 1.13153 29.2709 -0.295499 -19.3647 1.0687 -2.22182 2.86844 27.2583 -6.88454 0.0 0.0 0.0 23.2296 -50.7433 -10.0587 0.734425 -0.0309384 -0.108454 -12.5791 30.2668 2.02266 14.5205 -0.0 -0.0 -0.0 0.0 -0.0 -2.46283 -23.4908 0.0927838 -18.9789 -0.306391 -2.88306 37.019 16.8636 4.95451 16.2227 -0.0 -0.0 0.0 0.0 0.0 
1418.04 668.024 -1337.08 -14.9502 66.556 18.8812 3.29847 -0.184323 -0.818369 3.29883 -0.131876 -0.828438 3.30061 -0.00311997 -0.838862 3.29965 -0.135559 -0.827844 3.22487 2.3534 3.23406 3.25058 1.32415 3.77648 -0.0 0.0 -0.0 3.66718 22.1098 7.75057 -24.6708 -4.94402 70.7276 0.44679 -12.4801 0.0488531 18.9473 0.274029 -2.39382 0.714653 -0.0700423 4.7495 -0.0 0.0 -0.0 9.65041 -5.6714 -18.5944 2.4847 19.6858 -61.3443 1.12413 29.1108 -0.291888 -19.5618 1.08334 -2.24238 2.8909 27.0934 -7.1139 0.0 0.0 0.0 21.0682 -50.8315 -11.1309 0.379838 -0.0158269 -0.0561401 -12.3818 30.2023 1.98963 14.4784 -0.0 -0.0 -0.0 0.0 -0.0 -3.14331 -23.4089 -0.585414 -19.7664 -0.298345 -3.00362 36.5847 16.9088 4.91418 16.4657 -0.0 -0.0 0.0 0.0 0.0 
1395.71 663.542 -1341.01 -14.365 66.1093 18.6984 3.18712 -0.364985 -0.87864 3.18749 -0.308337 -0.900082 3.19223 -0.16474 -0.937056 3.19114 -0.310657 -0.899284 3.82916 2.10517 2.83238 3.84865 1.20069 3.32059 -0.0 0.0 -0.0 4.22018 20.7808 8.55252 -22.4583 -6.22822 70.9851 0.481081 -13.4045 0.0565337 20.8962 0.257019 -2.64216 0.21604 0.358101 1.59236 -0.0 0.0 -0.0 8.93406 -6.30061 -17.1642 -0.63287 22.0465 -62.637 1.13155 29.2714 -0.29551 -20.7104 1.17009 -2.36118 3.19391 26.4717 -9.39464 0.0 0.0 0.0 19.904 -50.8503 -11.5987 -1.11567 0.044328 0.165473 -10.64 30.0368 1.7045 17.3867 -0.0 -0.0 -0.0 0.0 -0.0 -4.25898 -23.2632 -0.812692 -20.8607 -0.284414 -3.17095 34.8172 15.1209 4.68106 16.5085 -0.0 -0.0 0.0 0.0 0.0 
1370.44 670.119 -1345.21 -11.9596 65.0029 18.0461 3.02357 -0.319713 -1.14459 3.02427 -0.246238 -1.16261 3.02907 -0.0592142 -1.18692 3.02719 -0.24591 -1.16268 4.23031 0.0341371 3.36512 4.27967 -2.85756 3.81261 -0.0 0.0 -0.0 4.55461 21.572 9.03046 -21.2752 -7.09524 69.0584 0.599505 -16.5404 0.0871405 20.598 0.260168 -2.60421 0.426852 0.065423 2.87882 -0.0 0.0 -0.0 8.62181 -5.88451 -16.5916 -2.5926 18.2466 -63.1708 1.05813 27.6613 -0.260509 -19.4095 1.07202 -2.22649 3.26102 26.8219 -9.64393 0.0 0.0 0.0 17.5713 -50.2237 -13.6426 -3.78766 0.137313 0.564966 -6.78987 29.8472 1.08067 20.2562 -0.0 -0.0 -0.0 0.0 -0.0 -5.2579 -23.2707 -1.59465 -22.0492 -0.265667 -3.35235 33.5269 15.6577 4.56582 15.8122 -0.0 -0.0 0.0 0.0 0.0 
1348.69 681.7 -1345.78 -10.7465 65.8463 18.1688 2.74131 -0.506559 -1.58557 2.74262 -0.404652 -1.61458 2.7538 -0.136222 -1.65893 2.75018 -0.396474 -1.61661 4.82291 0.0938604 1.91267 4.83844 -1.5079 2.18594 -0.0 0.0 -0.0 5.14393 19.6822 9.94948 -20.6335 -8.76512 68.3619 0.577247 -15.9581 0.0809124 20.9393 0.256547 -2.64765 0.545701 0.213951 3.73502 -0.0 0.0 -0.0 7.97986 -7.12015 -15.3086 -4.27796 16.3975 -63.5328 1.04428 27.352 -0.254111 -19.2318 1.05886 -2.20792 2.64211 24.3817 -6.87621 0.0 0.0 0.0 15.4595 -49.6664 -14.0437 -4.19118 0.149731 0.625648 -9.77026 29.4513 1.55736 18.087 -0.0 -0.0 -0.0 0.0 -0.0 -3.48426 -23.369 -2.61669 -24.4786 -0.215658 -3.72177 35.2773 15.2786 4.73193 15.718 -0.0 -0.0 0.0 0.0 0.0 
1327.53 684.776 -1350.72 -10.5161 67.8056 19.457 2.58047 -0.596208 -1.97379 2.58252 -0.469428 -2.00771 2.59871 -0.130561 -2.0577 2.59308 -0.453832 -2.01129 5.06744 -0.993325 1.38956 5.08719 -2.91778 1.54045 -0.0 0.0 -0.0 5.35789 19.2219 10.2893 -21.4306 -9.3046 68.1976 0.585418 -16.1723 0.0831735 21.4502 0.250641 -2.71264 0.514195 -0.496336 3.23052 -0.0 0.0 -0.0 7.09123 -7.71598 -13.6336 -6.88893 15.8878 -63.7732 0.99416 26.2187 -0.231525 -19.2208 1.05805 -2.20677 2.63702 23.8726 -7.09625 0.0 0.0 0.0 13.9649 -49.1818 -13.9155 -4.97311 0.172575 0.743476 -6.90248 30.3517 1.1026 20.4648 -0.0 -0.0 -0.0 0.0 -0.0 -2.8878 -23.2497 -3.62245 -28.453 -0.100203 -4.32067 34.8729 14.0742 4.65553 15.492 -0.0 -0.0 0.0 0.0 0.0 
1313.77 689.773 -1346.1 -10.6868 68.9536 20.1015 2.08292 -0.615427 -2.1089 2.08527 -0.480017 -2.14377 2.10328 -0.0995044 -2.19457 2.09683 -0.444766 -2.15135 3.76878 -2.9503 1.10395 3.81793 -6.06078 1.05909 -0.0 0.0 -0.0 5.80095 18.7837 10.9874 -21.7294 -8.39747 68.2318 0.613355 -16.9009 0.0911252 21.8713 0.245339 -2.76617 0.659491 -0.986316 4.00188 -0.0 0.0 -0.0 6.24199 -8.5385 -12.0636 -9.06114 16.9399 -63.8392 1.04432 27.3531 -0.254132 -20.6108 1.16247 -2.35095 3.00172 24.5571 -9.13848 0.0 0.0 0.0 14.85 -48.9367 -12.5064 -5.59819 0.189678 0.837878 -2.90763 29.9325 0.460027 23.165 -0.0 -0.0 -0.0 0.0 -0.0 -1.49859 -21.5137 -4.04887 -29.4131 -0.0660982 -4.46407 34.3444 12.0359 4.54773 15.3739 -0.0 -0.0 0.0 0.0 0.0 
1299.68 687.642 -1353.29 -9.56909 70.3268 19.3903 1.78981 -0.666366 -2.23742 1.79244 -0.52268 -2.27526 1.81351 -0.106861 -2.33205 1.80623 -0.473726 -2.28595 5.44467 -2.0343 1.85348 5.4965 -5.10271 2.03905 -0.0 0.0 -0.0 5.90789 16.967 11.2342 -23.0943 -10.4788 67.1296 0.650077 -17.8502 0.102092 22.2494 0.240242 -2.8142 0.682739 0.803358 4.89385 -0.0 0.0 -0.0 6.64423 -9.08086 -12.7755 -8.92901 13.5506 -64.0851 0.883357 23.6334 -0.184815 -18.9769 1.04009 -2.18122 2.12482 20.1256 -5.52804 0.0 0.0 0.0 14.0132 -48.4822 -12.0279 -6.56781 0.214166 0.984663 -5.42431 29.4314 0.859071 22.1866 -0.0 -0.0 -0.0 0.0 -0.0 -1.01601 -22.1355 -4.22177 -31.725 0.025862 -4.80692 36.0268 11.2236 4.6929 14.7031 -0.0 -0.0 0.0 0.0 0.0 
